<svg xmlns="http://www.w3.org/2000/svg" id="Layer_1" viewBox="0 0 1920 646"><defs><style>.cls-1{fill:#000835;}</style></defs><path class="cls-1" d="m1648.297,304.2114c-27.093-9.3799-39.0689-15.626-39.0689-29.6889,0-8.8566,5.7298-22.4029,32.8157-22.4029,25.5224,0,52.6083,11.4596,52.6083,11.4596v-39.0689c-11.4597-4.6902-31.7758-9.3729-54.6951-9.3729-39.0691,0-76.5746,20.8325-76.5746,61.9884s37.5056,52.6083,63.0353,60.9484c23.9591,7.8094,40.1087,15.626,40.1087,31.2523,0,13.5465-9.38,23.9592-40.1087,23.9592-26.046,0-57.3055-10.4126-57.3055-10.4126v39.0617s30.2126,8.3401,59.3851,8.3401c38.5527,0,83.8678-13.5465,83.8678-64.0751,0-34.379-28.1257-49.4888-64.068-61.9884Z"/><path class="cls-1" d="m666.3826,427.6644v-212.527h-58.8631l-57.821,158.3555-57.8218-158.3555h-58.863v212.527h40.1102v-160.435l58.3424,160.435h33.859l60.947-160.435v160.435h40.1102Z"/><path class="cls-1" d="m807.0164,215.1374h-77.6137v41.1487c36.9857-1.5635,47.4034-2.0797,63.5509-2.0797,25.5225,0,40.6323,9.3729,40.6323,34.379v16.1495h-40.6323c-68.2387,0-89.0748,27.6093-89.0748,63.5516,0,46.3551,34.3804,61.9884,68.76,61.9884s55.2172-16.1498,61.9869-20.8397v18.2293h44.7987v-145.3324c0-48.9653-26.5623-67.1946-72.4081-67.1946Zm26.5695,167.2119c-11.4597,4.1667-32.2993,11.4598-52.0919,11.4598-18.7528,0-33.8583-8.3331-33.8583-28.6491,0-18.2365,11.4597-27.6093,36.4615-28.6493l49.4888-2.0867v47.9253Z"/><path class="cls-1" d="m1198.2295,251.5959h107.3034v-36.4585h-153.1492v212.527h153.1492v-36.4585h-107.3034v-51.5757h91.1537v-35.9422h-91.1537v-52.092Z"/><path class="cls-1" d="m1526.4073,427.6644v-212.527h-46.8785v161.9985c-11.4597,5.2134-27.6093,13.5465-51.0521,13.5465-29.1726,0-38.022-16.1498-38.022-50.5285v-125.0165h-46.8856v130.7461c0,54.6952,17.713,84.3913,73.4478,84.3913,31.2595,0,46.8857-11.4596,63.5516-20.8397v18.2293h45.8387Z"/><path class="cls-1" d="m1010.1779,215.1374h-84.3841v212.527h84.3841c71.3682,0,107.3106-32.8155,107.3106-108.3432,0-66.1618-39.0689-104.1838-107.3106-104.1838Zm-2.0868,175.545h-35.4188v-138.5628h35.4188c35.426,0,61.472,17.1893,61.472,67.2016,0,47.9183-17.1895,71.3612-61.472,71.3612Z"/><path class="cls-1" d="m309.0293,215.1374h-77.6173v41.1487c36.9843-1.5635,47.4027-2.0797,63.5516-2.0797,25.5239,0,40.6309,9.3729,40.6309,34.379v16.1495h-40.6309c-68.2401,0-89.0769,27.6093-89.0769,63.5516,0,46.3551,34.3804,61.9884,68.7608,61.9884s55.2179-16.1498,61.989-20.8397v18.2293h44.7988v-145.3324c0-48.9653-26.5659-67.1946-72.4059-67.1946Zm26.5652,167.2119c-11.4597,4.1667-32.2964,11.4598-52.0912,11.4598-18.7528,0-33.8598-8.3331-33.8598-28.6491,0-18.2365,11.4597-27.6093,36.4636-28.6493l49.4873-2.0867v47.9253Z"/></svg>